<svg width="671" height="93" viewBox="0 0 671 93" fill="none" xmlns="http://www.w3.org/2000/svg">
<path d="M8 91.52C3.58172 91.52 0 87.9383 0 83.52V33.6C0 29.1817 3.58172 25.6 8 25.6H85.376C92.8853 25.6 98.3893 27.4773 101.888 31.232C105.387 34.9013 107.136 39.7653 107.136 45.824V83.52C107.136 87.9383 103.554 91.52 99.136 91.52H96.576C92.1577 91.52 88.576 87.9383 88.576 83.52V48.128C88.576 42.9227 85.9307 40.32 80.64 40.32H70.848C66.4297 40.32 62.848 43.9017 62.848 48.32V83.52C62.848 87.9383 59.2663 91.52 54.848 91.52H52.288C47.8697 91.52 44.288 87.9383 44.288 83.52V48.32C44.288 43.9017 40.7063 40.32 36.288 40.32H26.56C22.1417 40.32 18.56 43.9017 18.56 48.32V83.52C18.56 87.9383 14.9783 91.52 10.56 91.52H8Z" fill="white"/>
<path d="M154.417 92.16C142.982 92.16 134.065 89.344 127.665 83.712C121.265 77.9947 118.065 69.632 118.065 58.624C118.065 47.5307 121.265 39.168 127.665 33.536C134.065 27.8187 142.982 24.96 154.417 24.96H178.097C189.532 24.96 198.449 27.8187 204.849 33.536C211.249 39.168 214.449 47.5307 214.449 58.624C214.449 69.632 211.249 77.9947 204.849 83.712C198.449 89.344 189.532 92.16 178.097 92.16H154.417ZM154.417 77.44H178.097C183.644 77.44 187.868 75.904 190.769 72.832C193.756 69.76 195.249 65.024 195.249 58.624C195.249 52.1387 193.756 47.36 190.769 44.288C187.868 41.216 183.644 39.68 178.097 39.68H154.417C148.87 39.68 144.604 41.216 141.617 44.288C138.716 47.36 137.265 52.1387 137.265 58.624C137.265 65.024 138.716 69.76 141.617 72.832C144.604 75.904 148.87 77.44 154.417 77.44Z" fill="white"/>
<path d="M234 91.52C229.582 91.52 226 87.9383 226 83.52V8C226 3.58172 229.582 0 234 0H236.56C240.978 0 244.56 3.58172 244.56 8V83.52C244.56 87.9383 240.978 91.52 236.56 91.52H234Z" fill="white"/>
<path d="M339.777 83.52C339.777 87.9383 336.195 91.52 331.777 91.52H329.217C324.799 91.52 321.217 87.9383 321.217 83.52V8C321.217 3.58172 324.799 0 329.217 0H331.777C336.195 0 339.777 3.58172 339.777 8V83.52ZM336.577 84.16C336.577 88.2248 333.282 91.52 329.217 91.52H292.417C280.982 91.52 272.065 88.704 265.665 83.072C259.265 77.44 256.065 69.2907 256.065 58.624C256.065 47.872 259.265 39.68 265.665 34.048C272.065 28.416 280.982 25.6 292.417 25.6H327.937C332.002 25.6 335.297 28.8952 335.297 32.96C335.297 37.0248 332.002 40.32 327.937 40.32H292.417C286.87 40.32 282.604 41.856 279.617 44.928C276.716 47.9147 275.265 52.48 275.265 58.624C275.265 64.6827 276.716 69.248 279.617 72.32C282.604 75.3067 286.87 76.8 292.417 76.8H329.217C333.282 76.8 336.577 80.0952 336.577 84.16Z" fill="white"/>
<path d="M371.411 91.52C364.499 91.52 359.208 89.7707 355.539 86.272C351.87 82.7733 350.035 77.7813 350.035 71.296C350.035 64.896 351.87 59.9467 355.539 56.448C359.208 52.9493 364.499 51.2 371.411 51.2H417.491C419.188 51.2 420.563 49.8246 420.563 48.128C420.563 42.9227 418.003 40.32 412.883 40.32H365.971C361.906 40.32 358.611 37.0248 358.611 32.96C358.611 28.8952 361.906 25.6 365.971 25.6H417.747C425.512 25.6 431.016 27.392 434.259 30.976C437.502 34.4747 439.123 39.424 439.123 45.824V83.52C439.123 87.9383 435.541 91.52 431.123 91.52H371.411ZM374.739 76.8H415.123C418.127 76.8 420.563 74.3644 420.563 71.36C420.563 68.3556 418.127 65.92 415.123 65.92H374.739C373.118 65.92 371.838 66.432 370.899 67.456C370.046 68.3947 369.619 69.6747 369.619 71.296C369.619 72.9173 370.046 74.24 370.899 75.264C371.838 76.288 373.118 76.8 374.739 76.8Z" fill="white"/>
<path d="M461.25 91.52C456.832 91.52 453.25 87.9383 453.25 83.52V8C453.25 3.58172 456.832 0 461.25 0H463.81C468.228 0 471.81 3.58172 471.81 8V83.52C471.81 87.9383 468.228 91.52 463.81 91.52H461.25ZM463.81 91.52C459.745 91.52 456.45 88.2248 456.45 84.16C456.45 80.0952 459.745 76.8 463.81 76.8H500.61C506.157 76.8 510.381 75.3067 513.282 72.32C516.269 69.248 517.762 64.6827 517.762 58.624C517.762 52.48 516.269 47.9147 513.282 44.928C510.381 41.856 506.157 40.32 500.61 40.32H465.09C461.025 40.32 457.73 37.0248 457.73 32.96C457.73 28.8952 461.025 25.6 465.09 25.6H500.61C512.045 25.6 520.962 28.416 527.362 34.048C533.762 39.68 536.962 47.872 536.962 58.624C536.962 69.2907 533.762 77.44 527.362 83.072C520.962 88.704 512.045 91.52 500.61 91.52H463.81Z" fill="white"/>
<path d="M556.5 91.52C552.082 91.52 548.5 87.9383 548.5 83.52V8C548.5 3.58172 552.082 0 556.5 0H559.06C563.478 0 567.06 3.58172 567.06 8V83.52C567.06 87.9383 563.478 91.52 559.06 91.52H556.5Z" fill="white"/>
<path d="M614.917 92.16C603.482 92.16 594.565 89.344 588.165 83.712C581.765 77.9947 578.565 69.632 578.565 58.624C578.565 47.5307 581.765 39.168 588.165 33.536C594.565 27.8187 603.482 24.96 614.917 24.96H646.917C654.426 24.96 660.144 26.752 664.069 30.336C668.08 33.8347 670.085 38.8693 670.085 45.44C670.085 58.8373 662.362 65.536 646.917 65.536H608.541C603.412 65.536 599.45 70.8111 603.43 74.0465C606.213 76.3088 610.042 77.44 614.917 77.44H659.397C663.462 77.44 666.757 80.7352 666.757 84.8C666.757 88.8648 663.462 92.16 659.397 92.16H614.917ZM614.917 39.68C610.626 39.68 607.138 40.5647 604.454 42.3342C600.042 45.2427 603.882 50.816 609.167 50.816H646.021C647.728 50.816 649.05 50.304 649.989 49.28C651.013 48.256 651.525 46.848 651.525 45.056C651.525 41.472 649.69 39.68 646.021 39.68H614.917Z" fill="white"/>
</svg>
