<svg width="650" height="650" viewBox="0 0 650 650" fill="none" xmlns="http://www.w3.org/2000/svg">
<path fill-rule="evenodd" clip-rule="evenodd" d="M491.491 121.034C587.968 121.408 590.773 121.595 598.999 125.335C603.674 127.579 610.405 132.254 613.957 135.994C617.509 139.733 621.436 145.53 622.745 148.896C623.866 152.262 624.988 158.807 624.988 163.481C625.175 168.156 623.119 179.937 620.501 189.66C617.883 199.384 614.518 211.164 613.022 215.839C611.339 220.514 604.608 243.888 598.064 267.636C591.147 292.505 584.042 314.196 581.424 318.123C578.993 322.05 574.132 328.034 570.767 331.587C567.214 334.952 561.044 340.188 556.931 342.993C552.818 345.611 544.778 349.725 539.169 351.969C533.56 354.026 524.398 356.643 518.976 357.765C513.741 358.887 501.962 359.822 492.987 359.822C483.826 359.822 471.485 359.074 465.315 357.952C459.145 356.83 450.358 355.147 445.684 353.839C441.009 352.717 431.474 349.912 424.182 347.668C416.89 345.237 404.363 340.562 396.136 337.383C387.91 334.017 377.813 330.278 373.7 328.969C369.587 327.66 362.108 325.416 356.873 324.107C350.703 322.424 337.802 321.489 319.478 321.676C296.481 321.676 288.815 322.424 277.036 325.79C268.996 328.034 257.217 331.961 250.86 334.204C244.316 336.635 231.976 342.432 223.189 347.107C214.401 351.595 204.866 357.017 201.687 358.887C198.509 360.757 190.469 366.18 183.364 370.855C176.446 375.53 171.024 379.643 171.211 380.017C171.585 380.204 176.446 378.147 182.055 375.156C187.664 372.351 199.069 367.302 207.296 363.936C215.523 360.757 228.611 356.269 236.277 354.213C243.942 352.156 258.526 349.164 268.623 347.668C278.532 346.172 295.733 344.863 306.951 344.863C317.983 344.863 334.623 346.172 343.785 347.481C352.946 348.977 366.408 351.408 373.7 353.091C380.992 354.587 388.845 356.643 391.462 357.578C395.575 359.074 394.454 359.635 382.114 362.253C374.448 363.936 363.043 368.05 356.873 371.229C350.703 374.595 342.289 380.765 338.176 385.066C334.062 389.554 328.827 397.034 326.77 402.082C324.527 407.131 321.722 414.611 320.6 418.725C319.478 422.838 315.178 438.733 310.878 454.253C306.204 471.456 300.968 486.228 297.416 492.399C294.05 497.822 288.067 505.302 283.954 508.854C279.841 512.407 272.736 517.269 268.062 519.7C263.387 521.944 253.478 525.31 246.186 526.992C234.781 529.423 219.636 529.984 154.01 529.984C102.967 529.984 72.1166 529.236 65.5726 527.927C60.3374 526.806 52.8586 524.188 49.3062 522.505C45.7537 520.635 40.1446 516.334 36.7791 512.781C33.4137 509.415 29.4873 503.432 27.9915 499.505C26.3088 495.765 25 487.724 25 481.741C25 475.944 26.6827 465.659 28.9264 458.928C30.9831 452.196 33.6006 444.155 34.3485 441.163C35.0964 438.172 39.5837 422.464 44.258 406.57C48.9322 390.676 55.2892 368.798 58.4677 357.952C61.8332 347.107 66.1335 334.952 68.1902 330.839C70.4338 326.725 75.1081 319.619 79.0345 315.131C82.7739 310.644 90.4397 303.725 96.0488 299.985C101.658 296.245 110.072 291.57 114.746 289.701C119.42 288.018 126.151 285.587 129.703 284.652C133.256 283.53 162.236 282.221 194.208 281.473C248.243 280.164 252.917 279.79 264.322 275.863C271.053 273.432 280.215 268.944 284.889 265.766C289.563 262.4 296.107 256.79 299.473 253.237C303.025 249.684 307.512 243.327 309.569 239.213C311.813 235.099 314.243 229.115 314.991 226.123C315.739 222.945 317.983 215.091 320.039 208.359C322.096 201.628 326.209 188.538 328.827 179.376C331.632 170.213 336.306 159.181 339.11 155.067C341.915 150.953 347.711 144.408 352.011 140.481C356.125 136.742 363.23 131.693 367.53 129.449C372.017 127.392 379.309 124.4 383.983 123.091C390.34 121.408 416.329 120.847 491.491 121.034V121.034ZM412.964 250.058C410.907 250.619 404.55 253.05 398.941 255.107C393.332 257.351 383.609 260.904 377.439 262.961C371.269 265.018 363.604 267.449 360.612 268.197C357.62 269.131 346.963 271.749 337.241 274.367C327.518 276.798 312.748 279.977 304.521 281.099C296.294 282.408 288.254 283.717 286.759 284.091C285.263 284.278 288.815 284.652 294.611 284.839C300.594 284.839 313.682 284.091 323.592 282.969C333.688 282.034 346.589 279.79 352.198 278.481C357.807 276.985 367.53 274.18 373.7 272.31C379.87 270.253 392.584 265.205 401.745 260.904C410.907 256.603 424.743 249.31 432.035 244.636C439.514 240.148 445.684 236.034 445.684 235.473C445.684 234.912 445.497 234.538 445.123 234.725C444.936 234.725 438.392 237.904 430.726 241.831C423.06 245.571 415.02 249.31 412.964 250.058Z" fill="#FD752B"/>
</svg>
