<svg width="543" height="95" viewBox="0 0 543 95" fill="none" xmlns="http://www.w3.org/2000/svg">
<path d="M17.25 92.625L11.875 92.6875C6.41667 92.6875 3.04167 91.8542 1.75 90.1875C1.16667 89.4375 0.875 88.5417 0.875 87.5C0.875 86.4167 1.29167 85.6667 2.125 85.25C2.95833 84.8333 3.875 84.6042 4.875 84.5625C5.91667 84.5208 6.85417 84.2083 7.6875 83.625C8.52083 83 8.9375 82.0208 8.9375 80.6875V45C8.9375 43.75 8.45833 42.8125 7.5 42.1875C6.58333 41.5625 5.58333 41.2083 4.5 41.125C1.5 40.9583 0 40.0208 0 38.3125C0 35.5625 2.75 33.7083 8.25 32.75C9.5 32.5 10.6667 32.375 11.75 32.375C15.3333 32.375 17.6458 32.9167 18.6875 34C19.7292 35.0417 20.25 37.3958 20.25 41.0625C26 34.6458 33.7917 31.4375 43.625 31.4375C47.0417 31.4375 50.3542 32.4792 53.5625 34.5625C56.8125 36.6042 59.3333 39 61.125 41.75C68.2083 34.8333 76.0833 31.375 84.75 31.375C94.7917 31.375 101.188 35.6667 103.938 44.25C105.438 48.9167 106.188 55.2292 106.188 63.1875V80.6875C106.188 83.1042 107.521 84.3958 110.188 84.5625C112.896 84.6875 114.25 85.75 114.25 87.75C114.25 90.0417 113 91.4583 110.5 92C108.583 92.4167 105.958 92.625 102.625 92.625L97.25 92.6875C91.7917 92.6875 88.4167 91.8542 87.125 90.1875C86.5417 89.4375 86.25 88.5417 86.25 87.5C86.25 86.4167 86.6667 85.6667 87.5 85.25C88.3333 84.8333 89.25 84.6042 90.25 84.5625C91.2917 84.5208 92.2292 84.2083 93.0625 83.625C93.8958 83 94.3125 82.0208 94.3125 80.6875V61.4375C94.3125 51.9375 93.25 45.875 91.125 43.25C89.125 40.7083 86.2708 39.4375 82.5625 39.4375C78.8542 39.4375 75.625 39.9375 72.875 40.9375C70.1667 41.8958 67.9375 43.4167 66.1875 45.5C64.4375 47.5417 63.5625 49.9583 63.5625 52.75V80.6875C63.5625 83.1042 64.8958 84.3958 67.5625 84.5625C70.2708 84.6875 71.625 85.75 71.625 87.75C71.625 90.0417 70.375 91.4583 67.875 92C65.9583 92.4167 63.3333 92.625 60 92.625L54.625 92.6875C49.1667 92.6875 45.7917 91.8542 44.5 90.1875C43.9167 89.4375 43.625 88.5417 43.625 87.5C43.625 86.4167 44.0417 85.6667 44.875 85.25C45.7083 84.8333 46.625 84.6042 47.625 84.5625C48.6667 84.5208 49.6042 84.2083 50.4375 83.625C51.2708 83 51.6875 82.0208 51.6875 80.6875V62.0625C51.6875 54.2292 51 48.8333 49.625 45.875C47.625 41.5833 44.2083 39.4375 39.375 39.4375C33.375 39.4375 28.7708 40.9583 25.5625 44C22.3958 47.0417 20.8125 51.375 20.8125 57V80.6875C20.8125 83.1042 22.1458 84.3958 24.8125 84.5625C27.5208 84.6875 28.875 85.75 28.875 87.75C28.875 90.0417 27.625 91.4583 25.125 92C23.2083 92.4167 20.5833 92.625 17.25 92.625ZM151.375 94.1875C141.958 94.1875 134.375 91.2292 128.625 85.3125C122.875 79.3542 120 71.8125 120 62.6875C120 56.6042 121.521 51.1875 124.562 46.4375C127.604 41.6875 131.708 38.0625 136.875 35.5625C142.083 33.0208 147.875 31.75 154.25 31.75C163.417 31.75 170.979 34.6042 176.938 40.3125C182.896 46.0208 185.875 53.3958 185.875 62.4375C185.875 68.6875 184.333 74.25 181.25 79.125C178.208 83.9583 174.083 87.6875 168.875 90.3125C163.667 92.8958 157.833 94.1875 151.375 94.1875ZM153.938 87.25C160.146 87.25 164.979 85.1458 168.438 80.9375C171.938 76.7292 173.688 71.125 173.688 64.125C173.688 57.125 171.688 51.0833 167.688 46C163.688 40.9167 158.542 38.375 152.25 38.375C146 38.375 141.188 40.5208 137.812 44.8125C134.438 49.1042 132.75 54.7292 132.75 61.6875C132.75 68.6458 134.729 74.6458 138.688 79.6875C142.646 84.7292 147.729 87.25 153.938 87.25ZM209.75 92.625L204.375 92.6875C198.917 92.6875 195.542 91.8542 194.25 90.1875C193.667 89.4375 193.375 88.5417 193.375 87.5C193.375 86.4167 193.792 85.6667 194.625 85.25C195.458 84.8333 196.375 84.6042 197.375 84.5625C198.375 84.5208 199.292 84.2083 200.125 83.625C200.958 83 201.375 82.0208 201.375 80.6875V14.6875C201.375 10.8958 199.875 8.85417 196.875 8.5625C196.583 8.52083 196.208 8.47917 195.75 8.4375C195.292 8.39583 194.958 8.375 194.75 8.375C194.542 8.33333 194.271 8.29167 193.938 8.25C193.646 8.16667 193.417 8.08333 193.25 8C193.125 7.91667 193 7.8125 192.875 7.6875C192.583 7.4375 192.438 6.83333 192.438 5.875C192.438 4.91667 193.083 3.91667 194.375 2.875C196.708 0.958333 199.854 0 203.812 0C208.021 0 210.479 0.25 211.188 0.75C212.604 1.75 213.312 3.0625 213.312 4.6875V80.6875C213.312 83.1042 214.646 84.3958 217.312 84.5625C220.021 84.6875 221.375 85.75 221.375 87.75C221.375 90.0417 220.125 91.4583 217.625 92C215.708 92.4167 213.083 92.625 209.75 92.625ZM276.625 45.6875C274.875 43.3958 272.354 41.5833 269.062 40.25C265.812 38.875 262.167 38.1875 258.125 38.1875C254.083 38.1875 250.646 39.3542 247.812 41.6875C242.312 46.2292 239.562 52.9375 239.562 61.8125C239.562 68.6875 241.417 74.5208 245.125 79.3125C248.875 84.0625 253.729 86.4375 259.688 86.4375C265.688 86.4375 270 85.2083 272.625 82.75C275.292 80.25 276.625 76.125 276.625 70.375V45.6875ZM259.375 31.4375C262.125 31.4375 265.188 31.8958 268.562 32.8125C271.979 33.6875 274.667 34.625 276.625 35.625V14.6875C276.625 10.8958 275.125 8.85417 272.125 8.5625C271.833 8.52083 271.458 8.47917 271 8.4375C270.542 8.39583 270.208 8.375 270 8.375C269.792 8.33333 269.521 8.29167 269.188 8.25C268.896 8.16667 268.667 8.08333 268.5 8C268.375 7.91667 268.25 7.8125 268.125 7.6875C267.833 7.4375 267.688 6.83333 267.688 5.875C267.688 4.91667 268.333 3.91667 269.625 2.875C271.958 0.958333 275.104 0 279.062 0C283.271 0 285.729 0.25 286.438 0.75C287.854 1.75 288.562 3.0625 288.562 4.6875V73.0625C288.562 77.6875 289.062 80.6875 290.062 82.0625C291.104 83.3958 292.021 84.2083 292.812 84.5C293.646 84.7917 294.354 85.0417 294.938 85.25C295.562 85.4583 296 85.625 296.25 85.75C296.5 85.8333 296.812 86 297.188 86.25C297.854 86.625 298.188 87.2083 298.188 88C298.188 89.75 297.25 91.0417 295.375 91.875C293.542 92.6667 291.083 93.0625 288 93.0625C284.958 93.0625 282.75 92.4792 281.375 91.3125C280 90.1458 278.792 88 277.75 84.875C274.333 90.9167 267.208 93.9375 256.375 93.9375C247.708 93.9375 240.646 91.0625 235.188 85.3125C229.771 79.5625 227.062 72.1042 227.062 62.9375C227.062 53.7708 230.083 46.2292 236.125 40.3125C242.167 34.3958 249.917 31.4375 259.375 31.4375ZM316.688 53C315.146 53 313.396 52.3958 311.438 51.1875C309.521 49.9375 308.562 48.3333 308.562 46.375C308.562 44.375 309.125 42.5 310.25 40.75C311.375 39 312.833 37.5833 314.625 36.5C316.417 35.375 318.5 34.4375 320.875 33.6875C325.208 32.3125 329.875 31.625 334.875 31.625C343.292 31.625 349.396 33.5 353.188 37.25C357.021 40.9583 358.938 47.1042 358.938 55.6875L358.875 74.125C358.875 78.5833 359.438 81.375 360.562 82.5C360.854 82.7917 361.771 83.1667 363.312 83.625C367.562 84.9583 369.688 85.9792 369.688 86.6875C369.688 91.0625 365.208 93.25 356.25 93.25C352.875 93.25 350.667 92.5 349.625 91C348.625 89.5 348.083 86.7708 348 82.8125C346.125 86.1875 343.271 88.9167 339.438 91C335.604 93.0833 331.5 94.125 327.125 94.125C322.75 94.125 319.042 93.5625 316 92.4375C312.958 91.3125 310.479 89.5 308.562 87C306.688 84.4583 305.75 81.7292 305.75 78.8125C305.75 75.8958 306.083 73.5625 306.75 71.8125C307.417 70.0208 308.25 68.5208 309.25 67.3125C310.25 66.1042 311.604 65.0208 313.312 64.0625C315.062 63.1042 316.688 62.3542 318.188 61.8125C319.688 61.2292 321.625 60.7083 324 60.25C327.5 59.5833 330.438 59.125 332.812 58.875C335.188 58.5833 336.417 58.4167 336.5 58.375C336.75 58.3333 338.167 58.1875 340.75 57.9375C343.375 57.6458 345.438 57.0833 346.938 56.25C346.938 48.3333 345.875 43.1667 343.75 40.75C341.875 38.6667 338.792 37.625 334.5 37.625C330.208 37.625 326.979 38.7292 324.812 40.9375C322.688 43.1042 321.625 46.5625 321.625 51.3125L321.688 52.6875C319.938 52.8958 318.271 53 316.688 53ZM346.938 61.875C344.104 62.9167 340.896 63.6458 337.312 64.0625C333.771 64.4375 330.979 64.8958 328.938 65.4375C326.896 65.9792 325.188 66.6458 323.812 67.4375C320.646 69.2708 319.062 72.4167 319.062 76.875C319.062 84.0417 323.229 87.625 331.562 87.625C338.771 87.625 343.333 84.1875 345.25 77.3125C346.375 73.3958 346.938 68.25 346.938 61.875ZM428.312 65.5625C428.312 61.3125 427.521 57.2292 425.938 53.3125C424.354 49.3542 422.021 46.0625 418.938 43.4375C415.896 40.8125 412.479 39.5 408.688 39.5C403.479 39.5 398.667 41.5417 394.25 45.625V80.0625C399.208 83.9792 404.542 85.9375 410.25 85.9375C415.958 85.9375 420.396 84.0625 423.562 80.3125C426.729 76.5625 428.312 71.6458 428.312 65.5625ZM384.812 93.125C383.188 93.125 382.375 91.2292 382.375 87.4375V14.6875C382.375 10.8958 380.875 8.85417 377.875 8.5625C377.583 8.52083 377.208 8.47917 376.75 8.4375C376.292 8.39583 375.958 8.375 375.75 8.375C375.542 8.33333 375.271 8.29167 374.938 8.25C374.646 8.16667 374.417 8.08333 374.25 8C374.125 7.91667 374 7.8125 373.875 7.6875C373.583 7.4375 373.438 6.83333 373.438 5.875C373.438 4.91667 374.083 3.91667 375.375 2.875C377.708 0.958333 380.854 0 384.812 0C389.021 0 391.479 0.25 392.188 0.75C393.604 1.75 394.312 3.0625 394.312 4.6875V39.25C400.521 33.9583 407.583 31.3125 415.5 31.3125C423.417 31.3125 429.771 34.0833 434.562 39.625C439.396 45.125 441.812 52.3333 441.812 61.25C441.812 66.8333 440.583 72.1042 438.125 77.0625C435.708 82.0208 432.292 86.0417 427.875 89.125C423.5 92.2083 418.688 93.75 413.438 93.75C405.938 93.75 398.667 91.3958 391.625 86.6875C391.542 86.7708 390.979 87.5208 389.938 88.9375C387.896 91.7292 386.188 93.125 384.812 93.125ZM468.125 92.625L462.75 92.6875C457.292 92.6875 453.917 91.8542 452.625 90.1875C452.042 89.4375 451.75 88.5417 451.75 87.5C451.75 86.4167 452.167 85.6667 453 85.25C453.833 84.8333 454.75 84.6042 455.75 84.5625C456.75 84.5208 457.667 84.2083 458.5 83.625C459.333 83 459.75 82.0208 459.75 80.6875V14.6875C459.75 10.8958 458.25 8.85417 455.25 8.5625C454.958 8.52083 454.583 8.47917 454.125 8.4375C453.667 8.39583 453.333 8.375 453.125 8.375C452.917 8.33333 452.646 8.29167 452.312 8.25C452.021 8.16667 451.792 8.08333 451.625 8C451.5 7.91667 451.375 7.8125 451.25 7.6875C450.958 7.4375 450.812 6.83333 450.812 5.875C450.812 4.91667 451.458 3.91667 452.75 2.875C455.083 0.958333 458.229 0 462.188 0C466.396 0 468.854 0.25 469.562 0.75C470.979 1.75 471.688 3.0625 471.688 4.6875V80.6875C471.688 83.1042 473.021 84.3958 475.688 84.5625C478.396 84.6875 479.75 85.75 479.75 87.75C479.75 90.0417 478.5 91.4583 476 92C474.083 92.4167 471.458 92.625 468.125 92.625ZM494.875 85.8125C489.125 80.1458 486.25 72.625 486.25 63.25C486.25 53.875 489.146 46.2708 494.938 40.4375C500.771 34.5625 508.188 31.625 517.188 31.625C524.312 31.625 530.312 33.9375 535.188 38.5625C540.104 43.1458 542.562 48.9167 542.562 55.875C542.562 59.25 539.896 60.9375 534.562 60.9375H498.375C498.458 67.6875 500.646 73.375 504.938 78C509.229 82.625 514.646 84.9375 521.188 84.9375C525.521 84.9375 529.729 83.6667 533.812 81.125C535.979 79.7917 537.354 79.125 537.938 79.125C538.562 79.125 539.25 79.4375 540 80.0625C540.792 80.6458 541.188 81.375 541.188 82.25C541.188 84.5417 539.708 86.6667 536.75 88.625C533.833 90.5417 530.604 91.9583 527.062 92.875C523.521 93.8333 520.417 94.3125 517.75 94.3125C508.292 94.3125 500.667 91.4792 494.875 85.8125ZM531.062 54.375C530.979 49.5833 529.729 45.6875 527.312 42.6875C524.896 39.6875 521.354 38.1875 516.688 38.1875C512.062 38.1875 508 39.8542 504.5 43.1875C501.042 46.5208 499.208 50.3333 499 54.625H513.625C520.125 54.625 525.938 54.5417 531.062 54.375Z" fill="#262B2E"/>
</svg>
