<svg width="32" height="32" viewBox="0 0 32 32" fill="none" xmlns="http://www.w3.org/2000/svg">
  <rect width="32" height="32" rx="8" fill="url(#gradient)"/>
  <path d="M8 12C8 10.8954 8.89543 10 10 10H14C15.1046 10 16 10.8954 16 12V14C16 15.1046 15.1046 16 14 16H10C8.89543 16 8 15.1046 8 14V12Z" fill="white" fill-opacity="0.9"/>
  <path d="M18 12C18 10.8954 18.8954 10 20 10H22C23.1046 10 24 10.8954 24 12V20C24 21.1046 23.1046 22 22 22H20C18.8954 22 18 21.1046 18 20V12Z" fill="white" fill-opacity="0.9"/>
  <path d="M8 18C8 16.8954 8.89543 16 10 16H14C15.1046 16 16 16.8954 16 18V20C16 21.1046 15.1046 22 14 22H10C8.89543 22 8 21.1046 8 20V18Z" fill="white" fill-opacity="0.7"/>
  <defs>
    <linearGradient id="gradient" x1="0" y1="0" x2="32" y2="32" gradientUnits="userSpaceOnUse">
      <stop stop-color="#8B5CF6"/>
      <stop offset="1" stop-color="#6366F1"/>
    </linearGradient>
  </defs>
</svg>
